# xmcd
#
# Track frame offsets:
#	150
#	12423
#	24750
#	37936
#	56756
#	68830
#	81418
#	96271
#	109610
#	125268
#
# Disc length: 1841 seconds
#
# Revision: 1
# Processed by: cddbd v1.5.2PL0 Copyright (c) Steve Scherf et al.
# Submitted via: audiograbber 1.83.01
#
DISCID=77072f0a
DTITLE=TJ - Bad Boy
DYEAR=1900
DGENRE=Country
TTITLE0=Bad Boy
TTITLE1=Until They're Gone
TTITLE2=Betty
TTITLE3=Just Like We Use to
TTITLE4=Moan In Alimony
TTITLE5=Mouth Keeps Running
TTITLE6=It Doesn't Get Any Better Than This
TTITLE7=It' s A Long Walk
TTITLE8=Not Me
TTITLE9=Rambler
EXTD=
EXTT0=
EXTT1=
EXTT2=
EXTT3=
EXTT4=
EXTT5=
EXTT6=
EXTT7=
EXTT8=
EXTT9=
PLAYORDER=
